<?xml version="1.0" ?><!DOCTYPE svg  PUBLIC '-//W3C//DTD SVG 1.1//EN'  'http://www.w3.org/Graphics/SVG/1.1/DTD/svg11.dtd'><svg enable-background="new 0 0 36.594 35.89" height="35.89px" id="Layer_1" version="1.1" viewBox="0 0 36.594 35.89" width="36.594px" xml:space="preserve" xmlns="http://www.w3.org/2000/svg" xmlns:xlink="http://www.w3.org/1999/xlink"><g><g><g><path d="M2.117,34.81c-0.192,0-0.384-0.073-0.53-0.22c-0.293-0.293-0.293-0.768,0-1.061c0.68-0.681,1.667-1.658,2.643-2.623     l1.801-1.785c0.103-0.102,0.107-0.281,0.009-0.384c-0.311-0.325-0.625-0.647-0.939-0.971c-1.232-1.268-2.507-2.578-3.585-4.027     c-2.026-2.723-1.879-7.26-0.395-9.498c1.431-2.155,3.153-3.392,5.12-3.676c2.389-0.348,5.102,0.737,8.061,3.22     c0.317,0.266,0.359,0.738,0.093,1.056c-0.266,0.318-0.739,0.36-1.057,0.093c-2.618-2.194-4.934-3.161-6.882-2.884     c-1.526,0.221-2.9,1.237-4.084,3.021c-1.161,1.749-1.264,5.606,0.348,7.771c1.02,1.371,2.259,2.646,3.458,3.878     c0.317,0.326,0.634,0.652,0.948,0.98c0.662,0.693,0.646,1.808-0.037,2.484l-1.803,1.786c-0.973,0.964-1.959,1.939-2.638,2.618     C2.501,34.736,2.309,34.81,2.117,34.81z"/></g></g><g><g><path d="M14.664,35.073c-0.41,0-0.821-0.13-1.155-0.396c-1.114-0.88-2.248-1.731-3.333-2.547c-1.22-0.917-2.372-1.782-3.38-2.6     c-0.322-0.261-0.371-0.733-0.11-1.056c0.26-0.321,0.733-0.37,1.055-0.11c0.987,0.801,2.129,1.658,3.337,2.566     c1.094,0.822,2.237,1.682,3.361,2.569c0.135,0.106,0.369,0.093,0.492-0.028c0.631-0.626,1.308-1.272,2.009-1.942     c2.393-2.289,5.105-4.883,7.259-7.827c2.504-3.424,2.559-7.229,0.149-10.439c-0.249-0.331-0.181-0.802,0.15-1.05     c0.332-0.248,0.801-0.182,1.05,0.149c2.791,3.72,2.739,8.29-0.139,12.225c-2.232,3.053-4.996,5.695-7.434,8.026     c-0.694,0.664-1.364,1.305-1.989,1.924C15.629,34.893,15.147,35.073,14.664,35.073z"/></g></g><g><g><path d="M30.379,11.313c-0.27,0-0.533-0.04-0.77-0.124l-2.13-0.76c-0.39-0.14-0.594-0.568-0.455-0.959     c0.139-0.39,0.568-0.592,0.958-0.455l2.13,0.761c0.271,0.096,0.754,0.01,0.974-0.177l3.529-2.962l-2.99-0.503     c-0.408-0.068-0.685-0.455-0.616-0.863c0.068-0.409,0.452-0.687,0.863-0.617l3.614,0.605c0.795,0.132,1.014,0.636,1.072,0.847     c0.058,0.21,0.124,0.756-0.495,1.275l-4.013,3.367C31.62,11.111,30.984,11.313,30.379,11.313z"/></g></g><g><g><path d="M13.821,15.372c-0.026,0-0.053-0.001-0.08-0.004c-0.412-0.044-0.711-0.413-0.667-0.825     c0.229-2.168,1.34-3.802,3.128-4.601c2.288-1.025,5.407-0.498,7.949,1.335c0.336,0.242,0.412,0.711,0.169,1.047     c-0.243,0.337-0.712,0.413-1.047,0.17c-2.115-1.525-4.648-1.99-6.458-1.183c-1.298,0.58-2.076,1.752-2.249,3.39     C14.525,15.086,14.2,15.372,13.821,15.372z"/></g></g><g><g><path d="M15.675,20.673c-0.207,0-0.413-0.085-0.561-0.251c-0.275-0.31-0.248-0.784,0.062-1.06L26.2,9.551     c-0.036-0.049-0.066-0.103-0.091-0.161l-1.544-3.743C24.224,4.82,24.497,3.781,25.2,3.229l3.664-2.885     c0.406-0.321,0.891-0.422,1.331-0.282c0.439,0.142,0.774,0.507,0.918,1.002l1.003,3.447c0.235,0.807-0.062,1.837-0.689,2.396     L16.173,20.483C16.03,20.61,15.853,20.673,15.675,20.673z M29.706,1.596l-3.578,2.813c-0.172,0.135-0.259,0.465-0.176,0.666     l1.417,3.436l3.061-2.725c0.195-0.173,0.319-0.604,0.246-0.854L29.706,1.596z"/></g></g><g><g><path d="M1.825,35.89c-0.412,0-0.784-0.152-1.046-0.436c-0.314-0.338-0.431-0.819-0.321-1.32l1.192-5.407     c0.09-0.403,0.491-0.655,0.894-0.57c0.405,0.09,0.66,0.49,0.571,0.895l-1.173,5.32l4.663-0.661     c0.41-0.07,0.789,0.226,0.849,0.636c0.058,0.41-0.227,0.79-0.637,0.849L2.07,35.872C1.987,35.884,1.905,35.89,1.825,35.89z"/></g></g></g></svg>